<?xml version="1.0" encoding="iso-8859-1"?>
<!-- Generator: Adobe Illustrator 19.0.0, SVG Export Plug-In . SVG Version: 6.00 Build 0)  -->
<svg version="1.1" id="Capa_1" xmlns="http://www.w3.org/2000/svg" xmlns:xlink="http://www.w3.org/1999/xlink" x="0px" y="0px"
	 viewBox="0 0 512.001 512.001" style="enable-background:new 0 0 512.001 512.001;" xml:space="preserve">
<g>
	<g>
		<path d="M401.528,428.368c-4.274-3.494-10.573-2.863-14.068,1.412l-0.159,0.193c-3.534,4.242-2.961,10.546,1.281,14.081
			c1.869,1.558,4.138,2.318,6.395,2.318c2.863,0,5.709-1.225,7.686-3.597l0.276-0.336
			C406.435,438.162,405.803,431.864,401.528,428.368z"/>
	</g>
</g>
<g>
	<g>
		<path d="M315.75,141.676c-5.243-1.733-10.898,1.107-12.634,6.349c-1.737,5.242,1.107,10.898,6.349,12.633
			c6.291,2.083,12.391,4.511,18.291,7.25c-21.129,7.387-36.333,27.51-36.333,51.128c0,3.531-2.872,6.404-6.404,6.404
			c-21.514,0-39.015,17.502-39.015,39.016c0,9.374,2.86,18.092,7.754,25.328h-49.103c-23.891,0-43.327,19.437-43.327,43.327v14.676
			c0,23.891,19.436,43.327,43.327,43.327c8.585,0,15.569,6.984,15.569,15.57v81.52C143.63,471.729,86.039,403.49,86.039,322.044
			c0-15.85,2.188-31.35,6.345-46.144h49.979c15.293,0,27.733-12.441,27.733-27.734v-0.728c0-4.267,3.471-7.738,7.737-7.738
			c15.293,0,27.734-12.441,27.734-27.733v-3.879c0-15.293-12.441-27.734-27.734-27.734h-15.741
			c4.703-3.115,9.584-6.026,14.644-8.698c4.882-2.579,6.749-8.628,4.17-13.51c-2.577-4.882-8.627-6.75-13.51-4.17
			C104.879,187,66.043,251.4,66.043,322.044c0,104.743,85.214,189.957,189.957,189.957c43.049,0,83.643-14.042,117.395-40.609
			c4.339-3.415,5.088-9.701,1.673-14.04c-3.414-4.338-9.699-5.087-14.039-1.673c-30.192,23.765-66.511,36.326-105.029,36.326
			c-1.954,0-3.895-0.045-5.833-0.111l18.724-20.716c2.444-2.705,5.938-4.256,9.584-4.256c18.148,0,32.914-14.765,32.914-32.914
			v-33.141c0-3.283,2.671-5.954,5.954-5.954h7.361c14.309,0,25.949-11.641,25.949-25.949V350.9
			c0-14.309-11.641-25.949-25.949-25.949c-3.282,0-5.954-2.67-5.954-5.954c0-3.22-0.532-6.318-1.499-9.218h75.718
			c5.521,0,9.998-4.476,9.998-9.998c0-5.522-4.477-9.998-9.998-9.998H291.327c-13.966,0-25.328-11.362-25.328-25.328
			c0-10.488,8.532-19.02,19.02-19.02c14.557,0,26.399-11.842,26.399-26.399c0-18.836,15.324-34.16,34.159-34.16h10.933
			c42.887,31.389,69.453,81.835,69.453,137.167c0,24.481-5.09,48.101-15.129,70.205c-2.284,5.027-0.06,10.955,4.969,13.237
			c1.341,0.609,2.745,0.897,4.128,0.897c3.801,0,7.435-2.18,9.108-5.866c11.226-24.718,16.919-51.12,16.919-78.473
			C445.958,239.945,393.631,167.462,315.75,141.676z M137.41,200.255c0.428,0.056,0.861,0.095,1.304,0.095h39.12
			c4.267,0,7.738,3.471,7.738,7.738v3.879c0,4.267-3.472,7.737-7.738,7.737c-15.293,0-27.733,12.441-27.733,27.734v0.728
			c0,4.267-3.471,7.738-7.737,7.738H99.395C108.185,235.057,121.089,216.128,137.41,200.255z M289.537,309.779
			c5.083,0,9.218,4.135,9.218,9.218c0,14.308,11.64,25.949,25.949,25.949c3.282,0,5.954,2.67,5.954,5.954v18.063
			c0,3.283-2.671,5.954-5.954,5.954h-7.361c-14.309,0-25.949,11.641-25.949,25.949v33.141c0,7.123-5.795,12.918-12.918,12.918
			c-9.289,0-18.189,3.953-24.418,10.844l-13.837,15.31v-66.395c0-19.611-15.954-35.566-35.565-35.566
			c-12.865,0-23.332-10.467-23.332-23.332v-14.676c0-12.865,10.467-23.332,23.332-23.332H289.537z"/>
	</g>
</g>
<g>
	<g>
		<path d="M353.39,9.812c-0.848-3.211-3.256-5.838-6.476-6.921c-1.707-0.576-42.227-13.692-77.066,21.144
			c-22.087,22.087-24.894,46.456-23.847,61.771v58.125l-14.356-14.356c3.427-15.871,8.04-58.993-30.171-97.203
			C158.208-10.896,108.302,0.836,98.739,3.627L98.72,3.632c-3.228,0.84-5.867,3.253-6.955,6.484
			c-0.771,2.287-18.334,56.554,28.539,103.428c26.472,26.471,55.297,32.391,75.79,32.39c9.09-0.001,16.535-1.166,21.413-2.219
			l28.297,28.297c0.064,0.064,0.134,0.118,0.199,0.18v32.788c0,5.522,4.477,9.998,9.998,9.998c5.521,0,9.998-4.476,9.998-9.998
			v-95.303c2.821,0.35,6.09,0.598,9.708,0.598c15.279,0,36.716-4.402,56.347-24.035C364.042,54.248,355.546,17.28,353.39,9.812z
			 M213.823,111.751l-24.235-24.235c-3.905-3.904-10.234-3.904-14.14,0c-3.904,3.904-3.904,10.235,0,14.14l24.164,24.164
			c-16.496,0.614-41.948-3.194-65.168-26.415c-30.76-30.76-27.596-65.054-25.006-77.814c13.809-2.764,47.598-5.381,77.899,24.921
			C210.713,69.888,214.491,95.296,213.823,111.751z M317.915,72.099c-13.045,13.045-27.016,17.179-37.812,18.026l22.452-22.451
			c3.904-3.904,3.904-10.235,0-14.139c-3.903-3.904-10.232-3.904-14.14,0L265.99,75.96c0.857-10.804,4.99-24.777,17.999-37.786
			c19.737-19.737,41.599-19.081,51.365-17.497C337.037,31.009,337.441,52.573,317.915,72.099z"/>
	</g>
</g>
<g>
	<g>
		<path d="M163.251,61.18c-1.859-1.86-4.438-2.929-7.067-2.929c-2.63,0-5.209,1.07-7.068,2.929c-1.86,1.86-2.929,4.439-2.929,7.068
			s1.069,5.209,2.929,7.068c1.86,1.86,4.438,2.929,7.068,2.929c2.629,0,5.209-1.07,7.067-2.929c1.86-1.86,2.93-4.439,2.93-7.068
			S165.111,63.039,163.251,61.18z"/>
	</g>
</g>
<g>
</g>
<g>
</g>
<g>
</g>
<g>
</g>
<g>
</g>
<g>
</g>
<g>
</g>
<g>
</g>
<g>
</g>
<g>
</g>
<g>
</g>
<g>
</g>
<g>
</g>
<g>
</g>
<g>
</g>
</svg>
