<svg height="511pt" viewBox="-27 0 511 511.99892" width="511pt" xmlns="http://www.w3.org/2000/svg"><path d="m435.234375 352.84375c-1.796875-1.871094-4.144531-2.890625-6.546875-3.050781-5.679688-.503907-75.710938-5.800781-116.847656 34.554687-6.246094 6.128906-11.417969 12.9375-15.699219 20.105469v-67.035156c45.625-4.945313 81.257813-43.691407 81.257813-90.609375 0-50.253906-40.886719-91.144532-91.144532-91.144532-50.257812 0-91.144531 40.886719-91.144531 91.144532 0 46.839844 35.515625 85.535156 81.03125 90.582031v67.058594c-4.285156-7.164063-9.457031-13.972657-15.699219-20.101563-40.90625-40.125-110.378906-35.117187-116.726562-34.5625-2.441406.132813-4.839844 1.160156-6.667969 3.0625-1.6875 1.757813-2.605469 3.976563-2.757813 6.238282-1.015624 9.472656-6.957031 79.476562 33.472657 119.15625 29.746093 29.195312 74.910156 33.757812 100.238281 33.757812 9.316406 0 15.945312-.617188 18.140625-.855469 2.1875.238281 8.816406.855469 18.136719.855469 25.332031 0 70.496094-4.566406 100.234375-33.757812 40.148437-39.398438 34.574219-108.6875 33.496093-118.976563-.113281-2.320313-1.039062-4.613281-2.773437-6.421875zm-220.125-106.035156c0-39.226563 31.917969-71.144532 71.148437-71.144532 39.226563 0 71.140626 31.917969 71.140626 71.144532 0 39.230468-31.914063 71.148437-71.140626 71.148437-39.230468 0-71.148437-31.917969-71.148437-71.148437zm-33.335937 217.15625c-27.886719-27.367188-28.980469-75.246094-28.15625-94.609375 18.832031-.300781 64.996093 1.980469 92.816406 29.269531 22.433594 22.015625 28.242187 56.125 29.445312 78.609375l-40.421875-40.425781c-3.90625-3.902344-10.238281-3.902344-14.144531 0-3.90625 3.90625-3.90625 10.238281 0 14.144531l40.878906 40.878906c-22.761718-.71875-57.882812-5.746093-80.417968-27.867187 0 .003906 0 .003906 0 0zm208.730468.003906c-22.535156 22.121094-57.660156 27.152344-80.417968 27.863281l59.542968-59.542969c3.90625-3.90625 3.90625-10.238281 0-14.144531-3.90625-3.902343-10.234375-3.902343-14.140625 0l-59.089843 59.089844c1.207031-22.484375 7.011718-56.59375 29.445312-78.609375 27.8125-27.28125 73.957031-29.566406 92.820312-29.269531.824219 19.363281-.269531 67.242187-28.160156 94.613281zm0 0"/><path d="m200.101562 405.59375c-2.636718 0-5.207031 1.070312-7.066406 2.929688-1.871094 1.859374-2.933594 4.441406-2.933594 7.070312 0 2.640625 1.0625 5.210938 2.933594 7.070312 1.859375 1.871094 4.4375 2.929688 7.066406 2.929688 2.632813 0 5.203126-1.058594 7.070313-2.929688 1.863281-1.859374 2.929687-4.441406 2.929687-7.070312s-1.066406-5.210938-2.929687-7.070312c-1.859375-1.859376-4.4375-2.929688-7.070313-2.929688zm0 0"/><path d="m171.105469 27.675781c-.820313-3.390625-3.351563-6.109375-6.675781-7.167969l-62.785157-20.03125c-5.261719-1.679687-10.886719 1.226563-12.566406 6.488282-1.679687 5.257812 1.226563 10.886718 6.488281 12.5625l47.144532 15.042968-63.703126 63.703126-15.042968-47.144532c-.484375-1.519531-1.328125-2.902344-2.457032-4.03125l-43.9375-43.9375c-3.902343-3.902344-10.234374-3.902344-14.140624 0-3.90625 3.90625-3.90625 10.238282 0 14.144532l42.21875 42.21875 19.292968 60.46875c1.0625 3.324218 3.777344 5.855468 7.167969 6.679687.78125.191406 1.574219.28125 2.359375.28125 2.621094 0 5.175781-1.03125 7.074219-2.925781l86.917969-86.921875c2.464843-2.464844 3.46875-6.042969 2.644531-9.429688zm0 0"/><path d="m213.015625 117.375c-4.0625-3.742188-10.386719-3.480469-14.128906.582031-3.742188 4.0625-3.480469 10.390625.582031 14.128907 4.496094 4.140624 8.683594 8.679687 12.457031 13.488281 1.96875 2.519531 4.910157 3.835937 7.875 3.835937 2.160157 0 4.332031-.695312 6.164063-2.128906 4.347656-3.40625 5.109375-9.695312 1.703125-14.039062-4.433594-5.660157-9.363281-11-14.652344-15.867188zm0 0"/><path d="m156.847656 86.53125c-5.320312-1.488281-10.835937 1.617188-12.328125 6.933594-1.488281 5.320312 1.617188 10.835937 6.933594 12.328125l1.71875.480469c5.363281 1.5 10.652344 3.414062 15.730469 5.683593 1.324218.59375 2.710937.875 4.078125.875 3.820312 0 7.472656-2.203125 9.132812-5.917969 2.253907-5.042968-.003906-10.957031-5.046875-13.210937-5.96875-2.671875-12.195312-4.921875-18.5-6.6875zm0 0"/><path d="m252.59375 103.125c1.972656 2.519531 4.910156 3.835938 7.878906 3.835938 2.15625 0 4.328125-.695313 6.160156-2.128907 4.347657-3.40625 5.109376-9.695312 1.703126-14.039062-4.433594-5.660157-9.363282-10.996094-14.648438-15.867188-4.066406-3.738281-10.390625-3.476562-14.132812.582031-3.738282 4.066407-3.480469 10.390626.582031 14.132813 4.496093 4.136719 8.6875 8.675781 12.457031 13.484375zm0 0"/><path d="m192.121094 63.34375 1.71875.480469c5.363281 1.5 10.652344 3.414062 15.730468 5.683593 1.324219.59375 2.710938.875 4.078126.875 3.820312 0 7.472656-2.207031 9.132812-5.921874 2.253906-5.039063-.003906-10.957032-5.042969-13.210938-5.972656-2.667969-12.199219-4.917969-18.503906-6.683594l-1.71875-.480468c-5.316406-1.488282-10.835937 1.613281-12.328125 6.933593-1.488281 5.316407 1.617188 10.832031 6.933594 12.324219zm0 0"/><path d="m137.988281 134.839844c-4.09375-4.097656-8.527343-7.929688-13.171875-11.390625l-3.222656-2.402344c-4.429688-3.300781-10.691406-2.386719-13.992188 2.042969-3.300781 4.429687-2.386718 10.691406 2.039063 13.992187l3.226563 2.40625c3.871093 2.882813 7.566406 6.078125 10.980468 9.492188 1.953125 1.953125 4.511719 2.929687 7.070313 2.929687 2.558593 0 5.117187-.976562 7.070312-2.925781 3.90625-3.90625 3.90625-10.238281 0-14.144531zm0 0"/><path d="m149.402344 165.53125c-5.039063 2.265625-7.285156 8.183594-5.023438 13.222656 2.480469 5.515625 4.46875 11.292969 5.914063 17.167969 1.117187 4.5625 5.207031 7.617187 9.703125 7.617187.789062 0 1.589844-.09375 2.390625-.289062 5.363281-1.320312 8.644531-6.734375 7.328125-12.097656-1.730469-7.046875-4.117188-13.976563-7.089844-20.597656-2.265625-5.035157-8.183594-7.285157-13.222656-5.023438zm0 0"/><path d="m400.066406 161.894531c2.558594 0 5.121094-.976562 7.070313-2.929687l27.820312-27.820313c3.90625-3.90625 3.90625-10.238281 0-14.144531-3.902343-3.90625-10.234375-3.90625-14.140625 0l-27.820312 27.820312c-3.90625 3.90625-3.90625 10.238282 0 14.144532 1.953125 1.949218 4.511718 2.929687 7.070312 2.929687zm0 0"/><path d="m448.007812 174.960938h-24.484374c-5.523438 0-10 4.476562-10 10 0 5.523437 4.476562 10 10 10h24.484374c5.523438 0 10-4.476563 10-10 0-5.523438-4.476562-10-10-10zm0 0"/><path d="m367.003906 138.367188c5.519532 0 10-4.476563 10-10v-24.417969c0-5.523438-4.480468-10-10-10-5.523437 0-10 4.476562-10 10v24.417969c0 5.523437 4.476563 10 10 10zm0 0"/><path d="m308.539062 278.074219c3.90625-3.902344 3.90625-10.234375 0-14.140625-3.902343-3.902344-10.234374-3.90625-14.140624 0-2.800782 2.800781-7.359376 2.800781-10.164063 0-3.902344-3.90625-10.234375-3.90625-14.140625 0s-3.90625 10.234375 0 14.140625c5.300781 5.300781 12.261719 7.949219 19.222656 7.949219 6.960938 0 13.925782-2.648438 19.222656-7.949219zm0 0"/><path d="m315.183594 241.953125c2.628906 0 5.210937-1.070313 7.070312-2.929687 1.859375-1.859376 2.929688-4.441407 2.929688-7.070313s-1.070313-5.210937-2.929688-7.070313c-1.859375-1.859374-4.441406-2.929687-7.070312-2.929687s-5.210938 1.070313-7.070313 2.929687c-1.859375 1.859376-2.929687 4.441407-2.929687 7.070313s1.070312 5.210937 2.929687 7.070313c1.859375 1.859374 4.441407 2.929687 7.070313 2.929687zm0 0"/><path d="m271.0625 231.953125c0-2.628906-1.070312-5.210937-2.929688-7.070313-1.859374-1.859374-4.4375-2.929687-7.070312-2.929687-2.640625 0-5.207031 1.070313-7.078125 2.929687-1.859375 1.859376-2.921875 4.441407-2.921875 7.070313s1.0625 5.210937 2.921875 7.070313c1.871094 1.859374 4.449219 2.929687 7.078125 2.929687 2.632812 0 5.203125-1.070313 7.070312-2.929687 1.859376-1.859376 2.929688-4.441407 2.929688-7.070313zm0 0"/></svg>